<?xml version="1.0" encoding="iso-8859-1"?>
<!-- Generator: Adobe Illustrator 19.0.0, SVG Export Plug-In . SVG Version: 6.00 Build 0)  -->
<svg version="1.1" id="Capa_1" xmlns="http://www.w3.org/2000/svg" xmlns:xlink="http://www.w3.org/1999/xlink" x="0px" y="0px"
	 viewBox="0 0 512 512" style="enable-background:new 0 0 512 512;" xml:space="preserve">
<path style="fill:#B9D8F4;" d="M323.072,485.877h-28.829c0.056-0.69,0.093-1.386,0.093-2.09c0-13.85-11.227-25.078-25.078-25.078
	s-25.078,11.227-25.078,25.078c0,0.704,0.037,1.4,0.093,2.09h-28.827c-7.184,0-13.061,5.878-13.061,13.061
	c0,7.184,5.878,13.061,13.061,13.061h107.624c7.184,0,13.061-5.878,13.061-13.061C336.134,491.755,330.256,485.877,323.072,485.877z
	"/>
<path style="fill:#96C8EF;" d="M294.244,485.877c0.056-0.69,0.093-1.386,0.093-2.09c0-13.85-11.227-25.078-25.078-25.078
	s-25.078,11.227-25.078,25.078c0,0.704,0.037,1.4,0.093,2.09H294.244z"/>
<path style="fill:#D1E7F8;" d="M345.368,248.329c-9.391-44.546-6.309-88.458,9.16-130.516c2.289-6.224,1.341-13.15-2.541-18.564
	c-3.882-5.413-10.212-8.635-16.965-8.635H201.408c-6.752,0-13.082,3.222-16.965,8.635c-3.882,5.414-4.831,12.339-2.541,18.564
	c15.469,42.058,18.551,85.97,9.16,130.516c-7.171,34.015-35.267,69.785-35.267,112.215c0,60.732,50.432,110.139,112.422,110.139
	s112.421-49.407,112.421-110.139C380.636,318.114,352.539,282.343,345.368,248.329z"/>
<path style="fill:#B9D8F4;" d="M223.712,360.544c0-42.43,28.096-78.201,35.267-112.215c9.391-44.546,6.309-88.458-9.16-130.516
	c-2.289-6.224-1.341-13.15,2.541-18.564c3.882-5.413,10.212-8.635,16.965-8.635h-67.918c-6.752,0-13.083,3.222-16.965,8.635
	c-3.882,5.414-4.831,12.339-2.541,18.564c15.469,42.058,18.551,85.97,9.16,130.516c-7.171,34.015-35.267,69.785-35.267,112.215
	c0,60.732,50.432,110.139,112.422,110.139c11.831,0,23.24-1.806,33.959-5.14C256.732,451.405,223.712,409.683,223.712,360.544z"/>
<path style="fill:#FFDAAA;" d="M237.047,202.998c-3.786,0-7.117-2.749-7.73-6.607L207.071,56.566
	c-0.679-4.274,2.234-8.29,6.509-8.97c4.283-0.68,8.291,2.234,8.971,6.509l22.246,139.825c0.679,4.274-2.234,8.29-6.509,8.97
	C237.87,202.967,237.455,202.998,237.047,202.998z"/>
<path style="fill:#FFC477;" d="M229.316,196.392c0.614,3.858,3.944,6.607,7.73,6.607c0.41,0,0.823-0.032,1.241-0.098
	c4.275-0.68,7.188-4.697,6.509-8.97L228.359,90.615h-15.871L229.316,196.392z"/>
<path style="fill:#FF3F62;" d="M296.249,46.399L212.621,1.255c-4.15-2.24-9.286-1.423-12.537,1.995L134.24,72.494
	c-3.087,3.246-3.761,8.099-1.675,12.063c2.085,3.965,6.466,6.16,10.89,5.455l149.926-23.853c0.009-0.001,0.016-0.002,0.02-0.003
	c5.7-0.907,9.584-6.262,8.678-11.961C301.518,50.664,299.25,47.829,296.249,46.399z"/>
<polygon style="fill:#FF0C38;" points="176.371,84.775 206.026,0.128 260.486,71.392 "/>
<path style="fill:#3E3D42;" d="M275.182,203.489L275.182,203.489c-6.833-2.648-10.257-10.404-7.609-17.236l66.824-172.453
	c2.648-6.833,10.404-10.257,17.236-7.609l0,0c6.833,2.648,10.257,10.404,7.609,17.236L292.417,195.88
	C289.769,202.713,282.013,206.137,275.182,203.489z"/>
<path style="fill:#1D1D1F;" d="M275.182,203.489c6.833,2.648,14.589-0.776,17.236-7.609l40.79-105.266h-28.575l-37.059,95.64
	C264.925,193.085,268.349,200.842,275.182,203.489z"/>
<path style="fill:#FF9811;" d="M336.204,298.52c-6.055-13.641-12.316-27.746-15.357-42.17c-5.397-25.596-6.715-51.268-3.915-76.301
	c0.306-2.743-0.571-5.486-2.411-7.543c-1.839-2.057-4.468-3.233-7.229-3.233h-78.154c-2.76,0-5.39,1.176-7.229,3.233
	c-1.84,2.057-2.717,4.8-2.411,7.543c2.797,25.028,1.48,50.701-3.917,76.302c-3.041,14.423-9.302,28.528-15.358,42.171
	c-8.722,19.648-16.96,38.207-16.96,57.982c0,45.674,38.108,82.831,84.95,82.831s84.95-37.158,84.95-82.831
	C353.164,336.728,344.926,318.17,336.204,298.52z"/>
<path style="fill:#EE8700;" d="M256.893,438.578c-20.479-19.958-33.181-47.566-33.181-78.034c0-42.43,28.096-78.201,35.267-112.215
	c5.622-26.667,6.769-53.105,3.469-79.055h-33.31c-2.76,0-5.39,1.176-7.229,3.233c-1.84,2.057-2.717,4.8-2.411,7.543
	c2.797,25.028,1.48,50.701-3.917,76.302c-3.041,14.423-9.302,28.528-15.358,42.171c-8.722,19.648-16.96,38.207-16.96,57.983
	C183.265,398.433,215.388,433.161,256.893,438.578z"/>
<path style="fill:#DDFFFB;" d="M267.942,197.761l-14.45-14.449c-7.721-7.721-7.721-20.356,0-28.076l14.45-14.45
	c7.721-7.721,20.356-7.721,28.076,0l14.45,14.45c7.721,7.721,7.721,20.356,0,28.076l-14.45,14.45
	C288.298,205.483,275.663,205.483,267.942,197.761z"/>
<path style="fill:#FFC477;" d="M296.019,197.761l14.45-14.45c2.636-2.636,4.351-5.85,5.186-9.242
	c-0.324-0.553-0.699-1.078-1.134-1.563c-1.839-2.057-4.468-3.233-7.229-3.233h-59.592c0,5.089,1.93,10.177,5.791,14.038l14.45,14.45
	C275.663,205.483,288.298,205.483,296.019,197.761z"/>
<path style="fill:#FFFFFF;" d="M239.73,197.761l-14.45-14.449c-7.721-7.721-7.721-20.356,0-28.076l14.45-14.45
	c7.721-7.721,20.356-7.721,28.076,0l14.45,14.45c7.721,7.721,7.721,20.356,0,28.076l-14.45,14.45
	C260.086,205.483,247.451,205.483,239.73,197.761z"/>
<path style="fill:#FFDAAA;" d="M288.047,169.273h-58.908c-2.76,0-5.39,1.176-7.229,3.233c-0.662,0.74-1.194,1.572-1.597,2.457
	c0.907,3.062,2.561,5.943,4.966,8.349l14.45,14.45c7.721,7.721,20.356,7.721,28.076,0l14.45-14.45
	C286.117,179.451,288.047,174.363,288.047,169.273z"/>
<path style="fill:#EE8700;" d="M200.225,298.522c-8.722,19.648-16.96,38.207-16.96,57.983c0,45.674,38.108,82.831,84.95,82.831
	s84.95-37.158,84.95-82.831c0-19.777-8.238-38.334-16.961-57.985c-2.144-4.83-4.31-9.718-6.354-14.657H206.58
	C204.536,288.803,202.369,293.692,200.225,298.522z"/>
<g>
	<path style="fill:#CC7400;" d="M206.58,283.864c-2.044,4.939-4.211,9.828-6.354,14.658c-8.722,19.648-16.96,38.207-16.96,57.983
		c0,41.929,32.123,76.657,73.628,82.074c-20.479-19.958-33.181-47.566-33.181-78.034c0-27.989,12.224-53.08,22.605-76.68H206.58
		V283.864z"/>
	<path style="fill:#CC7400;" d="M183.442,361.6c2.71,43.308,39.687,77.736,84.774,77.736s82.063-34.428,84.774-77.736H183.442z"/>
</g>
<path style="fill:#AA6100;" d="M256.899,438.584c-20.245-19.727-32.875-46.933-33.165-76.985h-40.292
	C185.921,401.221,217.088,433.391,256.899,438.584z"/>
<g>
</g>
<g>
</g>
<g>
</g>
<g>
</g>
<g>
</g>
<g>
</g>
<g>
</g>
<g>
</g>
<g>
</g>
<g>
</g>
<g>
</g>
<g>
</g>
<g>
</g>
<g>
</g>
<g>
</g>
</svg>
