<svg id="Filled_expand" height="512" viewBox="0 0 512 512" width="512" xmlns="http://www.w3.org/2000/svg" data-name="Filled expand"><g><g><rect fill="#b3e9ff" height="304" rx="10" width="464" x="24" y="152"/><path d="m24 392h464a0 0 0 0 1 0 0v54a10 10 0 0 1 -10 10h-444a10 10 0 0 1 -10-10v-54a0 0 0 0 1 0 0z" fill="#4dccff"/><path d="m304 488h-96l8-32h80z" fill="#127bb3"/></g><g><path d="m220 24h-56a60 60 0 0 0 -60 60v212h176v-212a60 60 0 0 0 -60-60z" fill="#fa5d3f"/><path d="m56 392v-74.667a20 20 0 0 1 12.308-18.461l83.692-34.872h80l83.692 34.872a20 20 0 0 1 12.308 18.461v74.667z" fill="#c85aed"/><path d="m168 392-24-120h96l-24 120z" fill="#e9bdf8"/><path d="m232 272-40 32-40-32 16-56h48z" fill="#ffd4cf"/><g fill="#fac850"><path d="m144 272-48 56 32 8-8 32 24 24h24z"/><path d="m240 272 48 56-32 8 8 32-24 24h-24z"/><path d="m88 112h20a20 20 0 0 1 20 20v16a20 20 0 0 1 -20 20h-20a0 0 0 0 1 0 0v-56a0 0 0 0 1 0 0z" transform="matrix(-1 0 0 -1 216 280)"/></g><path d="m256 96h-118a10 10 0 0 0 -10 10v75.459a30 30 0 0 0 16.584 26.833l42.916 21.458a10 10 0 0 0 8.99-.023l43.064-21.807a30 30 0 0 0 16.446-26.764z" fill="#ffd4cf"/><path d="m280 80v64h-48a40 40 0 0 1 -40-40v-24" fill="#fa5d3f"/></g><g><path d="m400 64a88.015 88.015 0 0 0 -74.08 135.519l-13.92 32.481h51.288a88.009 88.009 0 1 0 36.712-168z" fill="#fac850"/><g><path d="m232 416h48v16h-48z"/><path d="m32 162a2 2 0 0 1 2-2h30v-16h-30a18.021 18.021 0 0 0 -18 18v110h16z"/><path d="m480 384h-144v-66.667a27.926 27.926 0 0 0 -17.231-25.846l-30.769-12.821v-158.666h-16v16h-40a32.036 32.036 0 0 1 -32-32v-24h-16v8h-46a18.025 18.025 0 0 0 -17.889 16h-8.111v-20a52.059 52.059 0 0 1 52-52h56a52.059 52.059 0 0 1 52 52v20h16v-20a68.077 68.077 0 0 0 -68-68h-56a68.077 68.077 0 0 0 -68 68v22.7a28.035 28.035 0 0 0 -16 25.3v16a28.035 28.035 0 0 0 16 25.3v105.37l-30.77 12.817a27.927 27.927 0 0 0 -17.23 25.846v66.667h-16v-96h-16v158a18.021 18.021 0 0 0 18 18h171.754l-4 16h-25.754v16h160v-16h-25.754l-4-16h117.754v-16h-390a2 2 0 0 1 -2-2v-46h448v46a2 2 0 0 1 -2 2h-38v16h38a18.021 18.021 0 0 0 18-18v-222h-16zm-190.246 80 4 16h-75.508l4-16zm30.246-146.667v66.667h-60.687l10.344-10.343a8 8 0 0 0 2.1-7.6l-6.057-24.236 24.238-6.06a8 8 0 0 0 4.134-12.968l-32.35-37.741 50.891 21.2a11.968 11.968 0 0 1 7.387 11.081zm-145.442 66.667-19.93-99.652 32.372 25.899a8 8 0 0 0 10 0l32.374-25.9-19.932 99.653zm-2.514-153.034 11.877 5.938a18.078 18.078 0 0 0 16.183-.04l11.826-5.989 10.915 38.2-30.845 24.68-30.845-24.676zm99.956 41.034-35.961-14.984-9.572-33.5 16.7-8.457a37.82 37.82 0 0 0 20.833-33.903v-29.156h8zm-136-166a2 2 0 0 1 2-2h46a48.055 48.055 0 0 0 48 48h16v29.156a21.9 21.9 0 0 1 -12.062 19.627l-43.063 21.806a2 2 0 0 1 -1.8 0l-42.916-21.457a21.881 21.881 0 0 1 -12.159-19.673v-.515l36.422 18.211a7.994 7.994 0 0 0 3.578.845h24v-16h-22.111l-41.889-20.944zm-40 26a12.013 12.013 0 0 1 12-12h12v40h-12a12.013 12.013 0 0 1 -12-12zm16 44h8v5.459a37.792 37.792 0 0 0 21.006 33.988l16.478 8.239-9.523 33.33-35.961 14.984zm-48 141.333a11.968 11.968 0 0 1 7.385-11.077l50.891-21.2-32.35 37.741a8 8 0 0 0 4.134 12.968l24.238 6.06-6.059 24.239a8 8 0 0 0 2.1 7.6l10.348 10.336h-60.687zm83.314 66.667-18.454-18.454 6.9-27.606a8 8 0 0 0 -5.821-9.7l-19.439-4.862 28.88-33.693 18.862 94.315zm78.444 0 18.864-94.315 28.88 33.693-19.442 4.861a8 8 0 0 0 -5.821 9.7l6.9 27.606-18.453 18.455z"/><path d="m152 128h16v16h-16z"/><path d="m305.321 236.4a8 8 0 0 0 6.679 3.6h49.577a95.99 95.99 0 1 0 -44.637-39.836l-12.293 28.685a8 8 0 0 0 .674 7.551zm94.679-164.4a80 80 0 1 1 -33.371 152.731 8.008 8.008 0 0 0 -3.341-.731h-39.156l9.141-21.33a8 8 0 0 0 -.623-7.477 80.015 80.015 0 0 1 67.35-123.193z"/><path d="m360 112h80v16h-80z"/><path d="m344 144h48v16h-48z"/><path d="m408 144h48v16h-48z"/><path d="m360 176h80v16h-80z"/></g></g></g></svg>