<svg height="512" viewBox="0 0 64 64" width="512" xmlns="http://www.w3.org/2000/svg"><circle cx="32" cy="32" fill="#4caf50" r="29"/><path d="m32 62a30 30 0 1 1 30-30 30.034 30.034 0 0 1 -30 30zm0-58a28 28 0 1 0 28 28 28.032 28.032 0 0 0 -28-28z" fill="#36474f"/><g fill="#004d40"><path d="m42.721 55.682-.821-1.824a23.876 23.876 0 0 0 12.083-12.229l1.833.8a25.874 25.874 0 0 1 -13.095 13.253z"/><path d="m21.569 55.816a25.881 25.881 0 0 1 -13.438-13.5l1.837-.792a23.882 23.882 0 0 0 12.4 12.46z"/><path d="m10.017 22.371-1.833-.8a25.874 25.874 0 0 1 13.1-13.252l.822 1.824a23.876 23.876 0 0 0 -12.089 12.228z"/><path d="m54.032 22.476a23.882 23.882 0 0 0 -12.4-12.46l.8-1.832a25.881 25.881 0 0 1 13.438 13.5z"/></g><path d="m17.556 17.556 7.635 14.444-7.635 14.444 14.444-7.635 14.444 7.635-7.635-14.444 7.635-14.444-14.444 7.635z" fill="#ffd54f"/><path d="m32 6-5 21-21 5 21 5 5 21 5-21 21-5-21-5z" fill="#ffa001"/><path d="m32 58v-26l-5 5z" fill="#e64a19"/><path d="m27 37 5-5h-26z" fill="#ffa001"/><path d="m32 58 5-21-5-5z" fill="#ffa001"/><path d="m32 32 5 5 21-5z" fill="#e64a19"/><path d="m6 32h26l-5-5z" fill="#e64a19"/><path d="m27 27 5 5v-26z" fill="#ffa001"/><path d="m32 6v26l5-5z" fill="#e64a19"/><path d="m37 27-5 5h26z" fill="#ffa001"/></svg>