<?xml version="1.0" encoding="iso-8859-1"?>
<!-- Generator: Adobe Illustrator 19.0.0, SVG Export Plug-In . SVG Version: 6.00 Build 0)  -->
<svg version="1.1" id="Capa_1" xmlns="http://www.w3.org/2000/svg" xmlns:xlink="http://www.w3.org/1999/xlink" x="0px" y="0px"
	 viewBox="0 0 512 512" style="enable-background:new 0 0 512 512;" xml:space="preserve">
<path style="fill:#F2F2F2;" d="M504,288H8V24c0-8.84,7.16-16,16-16h464c8.84,0,16,7.16,16,16V288z"/>
<path style="fill:#99A1B0;" d="M504,288H8v48c0,8.84,7.16,16,16,16h464c8.84,0,16-7.16,16-16V288z"/>
<polygon style="fill:#80899C;" points="312,440 200,440 208,352 304,352 "/>
<path style="fill:#EB7665;" d="M168,192l40,24v8h-38.08c-0.008,0.056-0.016,0.12-0.024,0.176
	c-1.08,9.048-8.752,23.824-17.864,23.824h-0.056c-9.112,0-16.784-14.776-17.872-23.824c-0.008-0.056-0.016-0.12-0.024-0.176H96v-8
	l40-24l-8-32H56v-16l64-32l2.736,16.392C121.104,114.456,120,104.72,120,104c0-26.512,14.328-48,32-48s32,21.488,32,48
	c0,0.72-1.104,10.456-2.736,24.392L184,112l64,32v16h-72L168,192z"/>
<path d="M152.024,256c-12.52,0-20.888-13.368-24.296-24H96c-4.416,0-8-3.576-8-8v-8c0-2.816,1.472-5.416,3.88-6.856l34.92-20.952
	L121.752,168H56c-4.416,0-8-3.576-8-8v-16c0-3.032,1.712-5.8,4.424-7.16l59.816-29.904C112,104.632,112,104.312,112,104
	c0-31.4,17.568-56,40-56s40,24.6,40,56c0,0.312,0,0.632-0.24,2.936l59.816,29.904c2.712,1.36,4.424,4.128,4.424,7.16v16
	c0,4.424-3.584,8-8,8h-65.752l-5.048,20.184l34.92,20.952c2.408,1.448,3.88,4.048,3.88,6.864v8c0,4.424-3.584,8-8,8h-31.728
	C172.864,242.624,164.504,256,152.024,256z M111.552,216h22.528c3.984,0,7.352,2.928,7.92,6.864
	c0.976,8.072,7.288,17.136,9.976,17.136c2.736,0,9.056-9.064,9.984-16.784c0.48-4.024,3.904-7.216,7.96-7.216h22.528l-28.568-17.144
	c-3.016-1.816-4.496-5.384-3.648-8.8l8-32c0.896-3.56,4.096-6.056,7.768-6.056h64v-3.056L190.112,124l-0.952,5.712
	c-0.712,4.28-4.688,7.256-9.008,6.608c-4.304-0.608-7.328-4.536-6.824-8.848c2.312-19.792,2.656-23.264,2.688-23.832
	C176,82.32,165.008,64,152,64s-24,18.32-24,40c0.024,0.2,0.368,3.68,2.68,23.472c0.504,4.312-2.52,8.24-6.824,8.848
	c-4.312,0.616-8.296-2.328-9.008-6.608l-0.96-5.712L64,148.944V152h64c3.672,0,6.872,2.496,7.76,6.064l8,32
	c0.848,3.416-0.624,6.984-3.648,8.8L111.552,216z"/>
<rect x="144" y="96" width="16" height="16"/>
<circle style="fill:#FDD189;" cx="364" cy="100" r="52"/>
<path d="M364,160c-33.088,0-60-26.912-60-60s26.912-60,60-60s60,26.912,60,60S397.088,160,364,160z M364,56
	c-24.264,0-44,19.744-44,44s19.736,44,44,44s44-19.744,44-44S388.264,56,364,56z"/>
<path d="M384,112h-24c-4.416,0-8-3.576-8-8V80h16v16h16V112z"/>
<rect x="272" y="176" width="88" height="16"/>
<rect x="384" y="176" width="72" height="16"/>
<rect x="272" y="240" width="96" height="16"/>
<rect x="392" y="240" width="64" height="16"/>
<rect x="272" y="208" width="40" height="16"/>
<rect x="336" y="208" width="120" height="16"/>
<rect x="232" y="312" width="48" height="16"/>
<g>
	<path style="fill:#80899C;" d="M360,504H8v-16c0-8.84,7.16-16,16-16h320c8.84,0,16,7.16,16,16V504z"/>
	<path style="fill:#80899C;" d="M504,504h-96v-16c0-8.84,7.16-16,16-16h64c8.84,0,16,7.16,16,16V504z"/>
</g>
<path d="M488,0H24C10.768,0,0,10.768,0,24v264v48c0,13.232,10.768,24,24,24h175.24l-6.544,72H136c-4.416,0-8,3.576-8,8s3.584,8,8,8
	h64h112h64c4.416,0,8-3.576,8-8s-3.584-8-8-8h-56.696l-6.544-72H488c13.232,0,24-10.768,24-24v-48V24C512,10.768,501.232,0,488,0z
	 M16,24c0-4.416,3.592-8,8-8h464c4.408,0,8,3.584,8,8v256H16V24z M303.24,432h-94.48l6.544-72h81.392L303.24,432z M496,336
	c0,4.416-3.592,8-8,8H304h-96H24c-4.408,0-8-3.584-8-8v-40h480V336z"/>
<path d="M344,464H24c-13.232,0-24,10.768-24,24v16c0,4.424,3.584,8,8,8h352c4.416,0,8-3.576,8-8v-16
	C368,474.768,357.232,464,344,464z M352,496H16v-8c0-4.416,3.592-8,8-8h320c4.408,0,8,3.584,8,8V496z"/>
<path d="M488,464h-64c-13.232,0-24,10.768-24,24v16c0,4.424,3.584,8,8,8h96c4.416,0,8-3.576,8-8v-16
	C512,474.768,501.232,464,488,464z M496,496h-80v-8c0-4.416,3.592-8,8-8h64c4.408,0,8,3.584,8,8V496z"/>
<g>
	<rect x="432" y="384" style="fill:#F2F2F2;" width="16" height="16"/>
	<rect x="464" y="384" style="fill:#F2F2F2;" width="16" height="16"/>
	<rect x="400" y="384" style="fill:#F2F2F2;" width="16" height="16"/>
	<rect x="368" y="384" style="fill:#F2F2F2;" width="16" height="16"/>
	<rect x="96" y="384" style="fill:#F2F2F2;" width="16" height="16"/>
	<rect x="128" y="384" style="fill:#F2F2F2;" width="16" height="16"/>
	<rect x="64" y="384" style="fill:#F2F2F2;" width="16" height="16"/>
	<rect x="32" y="384" style="fill:#F2F2F2;" width="16" height="16"/>
</g>
<rect x="248" y="384" width="16" height="16"/>
<g>
</g>
<g>
</g>
<g>
</g>
<g>
</g>
<g>
</g>
<g>
</g>
<g>
</g>
<g>
</g>
<g>
</g>
<g>
</g>
<g>
</g>
<g>
</g>
<g>
</g>
<g>
</g>
<g>
</g>
</svg>
