<svg id="Layer_5" enable-background="new 0 0 64 64" height="512" viewBox="0 0 64 64" width="512" xmlns="http://www.w3.org/2000/svg"><g><g><g><circle cx="10" cy="59" fill="#969faa" r="3"/></g><g><circle cx="36" cy="59" fill="#969faa" r="3"/></g><g><path d="m6 38v14h28c2.21 0 4-1.79 4-4v-8z" fill="#b4dd7f"/></g><g><path d="m34 35v4.75l-6.19-.39-11.72-.73-6.09-.38v-3.25z" fill="#969faa"/></g><g><path d="m22 10h-12v-4c0-2.21 1.79-4 4-4h4v4c0 2.21 1.79 4 4 4z" fill="#969faa"/></g><g><path d="m34 6v4h-12c1.1 0 2.1-.45 2.83-1.17.72-.73 1.17-1.73 1.17-2.83v-4h4c2.21 0 4 1.79 4 4z" fill="#969faa"/></g><g><path d="m18 2h8v4c0 1.1-.45 2.1-1.17 2.83-.73.72-1.73 1.17-2.83 1.17-2.21 0-4-1.79-4-4z" fill="#e6e9ed"/></g><g><path d="m22 10h-12v25h24v-25z" fill="#69d6f4"/></g><g><path d="m28 22v4h-12v-12h12v4h-2c-1.1 0-2 .9-2 2 0 .55.22 1.05.59 1.41.36.37.86.59 1.41.59z" fill="#ff826e"/></g><g><path d="m62 13v20h-2c-1.1 0-2-.9-2-2v-16c0-1.1.9-2 2-2z" fill="#fcd770"/></g><g><path d="m40 22h-6-6-2c-.55 0-1.05-.22-1.41-.59-.37-.36-.59-.86-.59-1.41 0-1.1.9-2 2-2h2 6 12.24c-3.47 0-6.28-2.81-6.28-6.29v-.09c0-.9.72-1.62 1.62-1.62.25 0 .5.06.72.17l2.33 1.17c.87.43 1.84.66 2.81.66h4.56c1.3 0 2.56.42 3.6 1.2l2.4 1.8v16l-2.4 1.8c-1.04.78-2.3 1.2-3.6 1.2h-9c-.55 0-1.05-.22-1.41-.59-.37-.36-.59-.86-.59-1.41 0-1.1.9-2 2-2h-2c-.55 0-1.05-.22-1.41-.59-.37-.36-.59-.86-.59-1.41 0-1.1.9-2 2-2h-1c-.55 0-1.05-.22-1.41-.59-.37-.36-.59-.86-.59-1.41 0-1.1.9-2 2-2z" fill="#f0d0b4"/></g></g><g><circle cx="22" cy="6" r="1"/><path d="m13 29h2v2h-2z"/><path d="m17 29h14v2h-14z"/><path d="m60 12c-1.052 0-1.975.546-2.511 1.367l-1.289-.967c-1.203-.903-2.695-1.4-4.2-1.4h-4.558c-.816 0-1.634-.193-2.364-.559l-2.332-1.165c-.361-.18-.766-.276-1.17-.276-1.443 0-2.618 1.175-2.618 2.714 0 2.082.883 3.957 2.287 5.286h-6.245v-11c0-2.757-2.243-5-5-5h-16c-2.757 0-5 2.243-5 5v31.186l-2-.125v-9.061c0-1.654-1.346-3-3-3h-3v2h3c.551 0 1 .448 1 1v26c0 1.199.712 2.228 1.731 2.708-.457.65-.731 1.438-.731 2.292 0 2.206 1.794 4 4 4s4-1.794 4-4c0-.732-.212-1.409-.556-2h19.113c-.345.591-.557 1.268-.557 2 0 2.206 1.794 4 4 4s4-1.794 4-4-1.794-4-4-4h-28c-.551 0-1-.448-1-1v-1h27c2.757 0 5-2.243 5-5v-8.939l-4-.25v-15.811h2.184c-.112.314-.184.648-.184 1 0 1.065.562 1.997 1.401 2.529-.248.437-.401.934-.401 1.471 0 1.383.945 2.539 2.22 2.884-.139.346-.22.721-.22 1.116 0 1.654 1.346 3 3 3h9c1.505 0 2.997-.497 4.2-1.4l1.289-.967c.536.821 1.459 1.367 2.511 1.367h3v-22zm-27-6v3h-7.026c.635-.838 1.026-1.87 1.026-3v-3h3c1.654 0 3 1.346 3 3zm-14 0v-3h6v3c0 1.654-1.346 3-3 3s-3-1.346-3-3zm-5-3h3v3c0 1.13.391 2.162 1.026 3h-7.026v-3c0-1.654 1.346-3 3-3zm1.216 36.578.676 4.731-8.892-.278v-4.967zm2.704 4.794-.667-4.667 9.409.588-.619 4.333zm7.839 2.245-.626 4.383h-6.266l-.66-4.619zm-13.759 12.383c0 1.103-.897 2-2 2s-2-.897-2-2 .897-2 2-2 2 .897 2 2zm26 0c0 1.103-.897 2-2 2s-2-.897-2-2 .897-2 2-2 2 .897 2 2zm-31-12.969 9.178.287.669 4.682h-9.847zm27 4.969h-6.847l.617-4.32 9.23.289v1.031c0 1.654-1.346 3-3 3zm3-6.031-8.946-.28.61-4.271 8.336.521zm-26-7.658v-1.311h22v2.686zm22-3.311h-22v-23h22v6h-4v-4h-14v14h14v-4h4zm-7-11h1v2h-10v-10h10v2h-1c-1.654 0-3 1.346-3 3s1.346 3 3 3zm29 9c-.859.645-1.925 1-3 1h-9c-.551 0-1-.448-1-1s.449-1 1-1h1v-2h-1-2c-.551 0-1-.448-1-1s.449-1 1-1h3v-2h-3-1c-.551 0-1-.448-1-1s.449-1 1-1h4v-2h-4-14c-.551 0-1-.448-1-1s.449-1 1-1h20.245 1.713 2v-2h-2-1.713c-2.915 0-5.286-2.371-5.287-5.382 0-.437.504-.749.895-.553l2.331 1.165c1.006.503 2.133.77 3.258.77h4.558c1.075 0 2.141.355 3 1l2 1.5v15zm6 0h-1c-.551 0-1-.448-1-1v-16c0-.552.449-1 1-1h1z"/></g></g></svg>